# xmcd
#
# Track frame offsets:
#	150
#	20110
#	42207
#	55595
#	71420
#	89373
#	106685
#	121047
#	143143
#	158165
#	175944
#	195290
#	220023
#	235435
#	257151
#
# Disc length: 3674 seconds
#
# Revision: 1
# Processed by: cddbd v1.5.2PL0 Copyright (c) Steve Scherf et al.
# Submitted via: audiograbber 1.83.01
#
DISCID=c30e580f
DTITLE=Phil Madeira - Original Sinner
DYEAR=2016
DGENRE=Blues
TTITLE0=Supernatural Man
TTITLE1=Way Down In The Mississippi
TTITLE2=Devil's Wall
TTITLE3=Jezebel's Got The Blues
TTITLE4=Drunk On You
TTITLE5=1983 Nashville Blues
TTITLE6=Factory Work
TTITLE7=Soul Of A Man
TTITLE8=Change Of Heart
TTITLE9=Storm Rollin' In
TTITLE10=Westboro Blues
TTITLE11=Henhouse
TTITLE12=When The Rain Come Down
TTITLE13=Kickin' The Can
TTITLE14=Boxing Day
EXTD=
EXTT0=
EXTT1=
EXTT2=
EXTT3=
EXTT4=
EXTT5=
EXTT6=
EXTT7=
EXTT8=
EXTT9=
EXTT10=
EXTT11=
EXTT12=
EXTT13=
EXTT14=
PLAYORDER=
